<svg width="118" height="36" viewBox="0 0 118 36" fill="none" xmlns="http://www.w3.org/2000/svg">
<g clip-path="url(#clip0_890_25825)">
<path d="M11.1176 22.9816V11.1175H24.8823V22.9816H11.1176Z" stroke="white" stroke-width="1.44"/>
<path d="M24.9373 8.49707H11.063C9.64594 8.49707 8.49719 9.64582 8.49719 11.0629V23.0366C8.49719 24.4537 9.64594 25.6024 11.063 25.6024H24.9373C26.3544 25.6024 27.5031 24.4537 27.5031 23.0366V11.0629C27.5031 9.64582 26.3544 8.49707 24.9373 8.49707Z" stroke="white" stroke-width="1.44"/>
<path d="M17.9999 8.49747V4.69629" stroke="white" stroke-width="1.44" stroke-miterlimit="10"/>
<path d="M18.0001 4.69572C19.0498 4.69572 19.9007 3.84479 19.9007 2.79512C19.9007 1.74546 19.0498 0.894531 18.0001 0.894531C16.9505 0.894531 16.0995 1.74546 16.0995 2.79512C16.0995 3.84479 16.9505 4.69572 18.0001 4.69572Z" fill="#EF884A" stroke="white" stroke-width="1.44"/>
<path d="M8.49711 17.0498H4.69592" stroke="white" stroke-width="1.44" stroke-miterlimit="10"/>
<path d="M2.79527 18.9506C1.7456 18.9506 0.894678 18.0997 0.894678 17.05C0.894678 16.0003 1.7456 15.1494 2.79527 15.1494C3.84494 15.1494 4.69586 16.0003 4.69586 17.05C4.69586 18.0997 3.84494 18.9506 2.79527 18.9506Z" stroke="white" stroke-width="1.44"/>
<path d="M33.2048 18.9506C32.1551 18.9506 31.3042 18.0997 31.3042 17.05C31.3042 16.0003 32.1551 15.1494 33.2048 15.1494C34.2545 15.1494 35.1054 16.0003 35.1054 17.05C35.1054 18.0997 34.2545 18.9506 33.2048 18.9506Z" stroke="white" stroke-width="1.44"/>
<path d="M31.3041 17.0498H27.5029" stroke="white" stroke-width="1.44" stroke-miterlimit="10"/>
<path d="M20.8508 25.6025C20.8508 28.1367 19.9005 29.4037 17.9999 29.4037C16.0993 29.4037 15.1491 28.1367 15.1491 25.6025H20.8508Z" stroke="white" stroke-width="1.44" stroke-miterlimit="10"/>
<path d="M15.7195 28.2627L12.2985 29.4031L11.7416 31.8605" stroke="white" stroke-width="1.44" stroke-miterlimit="10"/>
<path d="M10.3976 35.1049C9.34796 35.1049 8.49703 34.254 8.49703 33.2043C8.49703 32.1546 9.34796 31.3037 10.3976 31.3037C11.4473 31.3037 12.2982 32.1546 12.2982 33.2043C12.2982 34.254 11.4473 35.1049 10.3976 35.1049Z" stroke="white" stroke-width="1.44"/>
<path d="M25.6022 35.1049C24.5525 35.1049 23.7016 34.254 23.7016 33.2043C23.7016 32.1546 24.5525 31.3037 25.6022 31.3037C26.6519 31.3037 27.5028 32.1546 27.5028 33.2043C27.5028 34.254 26.6519 35.1049 25.6022 35.1049Z" stroke="white" stroke-width="1.44"/>
<path d="M20.2807 28.2627L23.7018 29.4031L24.2586 31.8605" stroke="white" stroke-width="1.44" stroke-miterlimit="10"/>
<path d="M13.2486 14.1992H22.7516" stroke="white" stroke-width="1.44" stroke-miterlimit="10"/>
<path d="M13.2486 17.0117H22.7516" stroke="white" stroke-width="1.44" stroke-miterlimit="10"/>
<path d="M13.2486 19.9004H22.7516" stroke="white" stroke-width="1.44" stroke-miterlimit="10"/>
</g>
<path d="M40.992 26.7V15.5H42.976L43.104 16.972V26.7H40.992ZM45.52 23.692C44.848 23.692 44.2773 23.5213 43.808 23.18C43.3493 22.8387 42.9973 22.3533 42.752 21.724C42.5067 21.0947 42.384 20.3533 42.384 19.5C42.384 18.636 42.5067 17.8947 42.752 17.276C42.9973 16.6467 43.3493 16.1613 43.808 15.82C44.2773 15.4787 44.848 15.308 45.52 15.308C46.256 15.308 46.8907 15.4787 47.424 15.82C47.968 16.1613 48.3893 16.6467 48.688 17.276C48.9867 17.8947 49.136 18.636 49.136 19.5C49.136 20.3533 48.9867 21.0947 48.688 21.724C48.3893 22.3533 47.968 22.8387 47.424 23.18C46.8907 23.5213 46.256 23.692 45.52 23.692ZM44.976 21.756C45.36 21.756 45.696 21.66 45.984 21.468C46.2827 21.276 46.5173 21.0093 46.688 20.668C46.8587 20.3267 46.944 19.9373 46.944 19.5C46.944 19.0627 46.8587 18.6733 46.688 18.332C46.528 17.9907 46.2987 17.7293 46 17.548C45.712 17.356 45.376 17.26 44.992 17.26C44.6293 17.26 44.304 17.356 44.016 17.548C43.728 17.74 43.504 18.0067 43.344 18.348C43.184 18.6787 43.104 19.0627 43.104 19.5C43.104 19.9373 43.184 20.3267 43.344 20.668C43.504 21.0093 43.7227 21.276 44 21.468C44.288 21.66 44.6133 21.756 44.976 21.756ZM54.1214 23.692C53.3107 23.692 52.5854 23.516 51.9454 23.164C51.316 22.8013 50.82 22.3053 50.4574 21.676C50.1054 21.0467 49.9294 20.3213 49.9294 19.5C49.9294 18.6787 50.1054 17.9533 50.4574 17.324C50.8094 16.6947 51.3 16.204 51.9294 15.852C52.5587 15.4893 53.2787 15.308 54.0894 15.308C54.9107 15.308 55.636 15.4893 56.2654 15.852C56.8947 16.204 57.3854 16.6947 57.7374 17.324C58.0894 17.9533 58.2654 18.6787 58.2654 19.5C58.2654 20.3213 58.0894 21.0467 57.7374 21.676C57.3854 22.3053 56.8947 22.8013 56.2654 23.164C55.6467 23.516 54.932 23.692 54.1214 23.692ZM54.1214 21.74C54.516 21.74 54.8627 21.644 55.1614 21.452C55.46 21.26 55.6894 20.9987 55.8494 20.668C56.02 20.3267 56.1054 19.9373 56.1054 19.5C56.1054 19.0627 56.02 18.6787 55.8494 18.348C55.6787 18.0067 55.4387 17.74 55.1294 17.548C54.8307 17.356 54.484 17.26 54.0894 17.26C53.7054 17.26 53.3587 17.356 53.0494 17.548C52.7507 17.74 52.516 18.0067 52.3454 18.348C52.1747 18.6787 52.0894 19.0627 52.0894 19.5C52.0894 19.9373 52.1747 20.3267 52.3454 20.668C52.516 20.9987 52.756 21.26 53.0654 21.452C53.3747 21.644 53.7267 21.74 54.1214 21.74ZM63.3543 23.692C62.5223 23.692 61.7809 23.516 61.1303 23.164C60.4796 22.8013 59.9729 22.3053 59.6103 21.676C59.2476 21.036 59.0663 20.3107 59.0663 19.5C59.0663 18.6787 59.2476 17.9533 59.6103 17.324C59.9729 16.6947 60.4743 16.204 61.1143 15.852C61.7543 15.4893 62.4903 15.308 63.3223 15.308C64.1223 15.308 64.8529 15.5053 65.5143 15.9C66.1756 16.2947 66.6556 16.8653 66.9543 17.612L64.9703 18.316C64.8209 18.0067 64.5863 17.7613 64.2663 17.58C63.9569 17.388 63.6103 17.292 63.2263 17.292C62.8316 17.292 62.4849 17.388 62.1863 17.58C61.8876 17.7613 61.6529 18.0173 61.4823 18.348C61.3116 18.6787 61.2263 19.0627 61.2263 19.5C61.2263 19.9373 61.3116 20.3213 61.4823 20.652C61.6529 20.972 61.8929 21.228 62.2023 21.42C62.5116 21.612 62.8636 21.708 63.2583 21.708C63.6423 21.708 63.9889 21.6067 64.2983 21.404C64.6183 21.2013 64.8529 20.9347 65.0023 20.604L67.0023 21.308C66.6929 22.0653 66.2076 22.652 65.5463 23.068C64.8956 23.484 64.1649 23.692 63.3543 23.692ZM70.0886 21.468L68.8246 20.012L72.9206 15.5H75.4326L70.0886 21.468ZM68.0726 23.5V12.3H70.1846V23.5H68.0726ZM73.1926 23.5L70.5366 19.628L71.9126 18.172L75.6726 23.5H73.1926ZM79.7161 23.692C78.9268 23.692 78.2281 23.516 77.6201 23.164C77.0121 22.8013 76.5321 22.3053 76.1801 21.676C75.8388 21.0467 75.6681 20.3213 75.6681 19.5C75.6681 18.6787 75.8441 17.9533 76.1961 17.324C76.5588 16.6947 77.0495 16.204 77.6681 15.852C78.2975 15.4893 79.0175 15.308 79.8281 15.308C80.5321 15.308 81.1775 15.4947 81.7641 15.868C82.3615 16.2307 82.8361 16.7693 83.1881 17.484C83.5508 18.188 83.7321 19.0467 83.7321 20.06H77.6681L77.8601 19.868C77.8601 20.2627 77.9561 20.6093 78.1481 20.908C78.3508 21.196 78.6068 21.42 78.9161 21.58C79.2361 21.7293 79.5775 21.804 79.9401 21.804C80.3775 21.804 80.7348 21.7133 81.0121 21.532C81.2895 21.34 81.5028 21.0947 81.6521 20.796L83.5401 21.532C83.3161 21.98 83.0228 22.3693 82.6601 22.7C82.3081 23.02 81.8868 23.2653 81.3961 23.436C80.9055 23.6067 80.3455 23.692 79.7161 23.692ZM77.9721 18.684L77.7801 18.492H81.6361L81.4601 18.684C81.4601 18.3 81.3695 17.996 81.1881 17.772C81.0068 17.5373 80.7828 17.3667 80.5161 17.26C80.2601 17.1533 80.0095 17.1 79.7641 17.1C79.5188 17.1 79.2575 17.1533 78.9801 17.26C78.7028 17.3667 78.4628 17.5373 78.2601 17.772C78.0681 17.996 77.9721 18.3 77.9721 18.684ZM88.0955 23.692C87.2102 23.692 86.5382 23.4733 86.0795 23.036C85.6315 22.5987 85.4075 21.9747 85.4075 21.164V13.004H87.5195V20.7C87.5195 21.0413 87.5942 21.3027 87.7435 21.484C87.8928 21.6547 88.1115 21.74 88.3995 21.74C88.5062 21.74 88.6235 21.7187 88.7515 21.676C88.8795 21.6227 89.0128 21.548 89.1515 21.452L89.8875 23.036C89.6315 23.228 89.3435 23.3827 89.0235 23.5C88.7142 23.628 88.4048 23.692 88.0955 23.692ZM84.1115 17.292V15.5H89.5195V17.292H84.1115Z" fill="white"/>
<path d="M91.077 23.5V12.3H93.189V22.012L93.077 23.5H91.077ZM95.605 23.692C94.933 23.692 94.3623 23.5213 93.893 23.18C93.4343 22.8387 93.0823 22.3533 92.837 21.724C92.5917 21.0947 92.469 20.3533 92.469 19.5C92.469 18.636 92.5917 17.8947 92.837 17.276C93.0823 16.6467 93.4343 16.1613 93.893 15.82C94.3623 15.4787 94.933 15.308 95.605 15.308C96.341 15.308 96.9757 15.4787 97.509 15.82C98.053 16.1613 98.4743 16.6467 98.773 17.276C99.0717 17.8947 99.221 18.636 99.221 19.5C99.221 20.3533 99.0717 21.0947 98.773 21.724C98.4743 22.3533 98.053 22.8387 97.509 23.18C96.9757 23.5213 96.341 23.692 95.605 23.692ZM95.061 21.756C95.445 21.756 95.781 21.66 96.069 21.468C96.3677 21.276 96.6023 21.0093 96.773 20.668C96.9437 20.3267 97.029 19.9373 97.029 19.5C97.029 19.0627 96.9437 18.6733 96.773 18.332C96.613 17.9907 96.3837 17.7293 96.085 17.548C95.797 17.356 95.461 17.26 95.077 17.26C94.7143 17.26 94.389 17.356 94.101 17.548C93.813 17.74 93.589 18.0067 93.429 18.348C93.269 18.6787 93.189 19.0627 93.189 19.5C93.189 19.9373 93.269 20.3267 93.429 20.668C93.589 21.0093 93.8077 21.276 94.085 21.468C94.373 21.66 94.6983 21.756 95.061 21.756ZM105.728 23.5L105.6 22.028V15.5H107.712V23.5H105.728ZM100.304 19.596V15.5H102.416V19.596H100.304ZM102.416 19.596C102.416 20.1293 102.475 20.5507 102.592 20.86C102.72 21.1587 102.896 21.3773 103.12 21.516C103.355 21.644 103.616 21.708 103.904 21.708C104.459 21.7187 104.88 21.5533 105.168 21.212C105.456 20.86 105.6 20.3533 105.6 19.692H106.32C106.32 20.5453 106.192 21.2707 105.936 21.868C105.68 22.4547 105.328 22.908 104.88 23.228C104.432 23.5373 103.904 23.692 103.296 23.692C102.656 23.692 102.112 23.564 101.664 23.308C101.216 23.052 100.875 22.6573 100.64 22.124C100.416 21.58 100.304 20.8813 100.304 20.028V19.596H102.416ZM115.078 23.5L114.966 22.012V12.3H117.078V23.5H115.078ZM112.566 23.692C111.83 23.692 111.19 23.5213 110.646 23.18C110.113 22.8387 109.697 22.3533 109.398 21.724C109.099 21.0947 108.95 20.3533 108.95 19.5C108.95 18.636 109.099 17.8947 109.398 17.276C109.697 16.6467 110.113 16.1613 110.646 15.82C111.19 15.4787 111.83 15.308 112.566 15.308C113.238 15.308 113.803 15.4787 114.262 15.82C114.731 16.1613 115.089 16.6467 115.334 17.276C115.579 17.8947 115.702 18.636 115.702 19.5C115.702 20.3533 115.579 21.0947 115.334 21.724C115.089 22.3533 114.731 22.8387 114.262 23.18C113.803 23.5213 113.238 23.692 112.566 23.692ZM113.11 21.756C113.473 21.756 113.793 21.66 114.07 21.468C114.358 21.276 114.582 21.0093 114.742 20.668C114.902 20.3267 114.982 19.9373 114.982 19.5C114.982 19.0627 114.902 18.6733 114.742 18.332C114.582 17.9907 114.358 17.7293 114.07 17.548C113.793 17.356 113.467 17.26 113.094 17.26C112.71 17.26 112.374 17.356 112.086 17.548C111.798 17.7293 111.569 17.9907 111.398 18.332C111.227 18.6733 111.142 19.0627 111.142 19.5C111.142 19.9373 111.227 20.3267 111.398 20.668C111.569 21.0093 111.798 21.276 112.086 21.468C112.385 21.66 112.726 21.756 113.11 21.756Z" fill="#EF884A"/>
<defs>
<clipPath id="clip0_890_25825">
<rect width="36" height="36" fill="white"/>
</clipPath>
</defs>
</svg>
