<svg width="40" height="40" viewBox="0 0 40 40" fill="none" xmlns="http://www.w3.org/2000/svg">
<rect width="40" height="40" fill="#232323"/>
<path d="M0 6C0 2.68629 2.68629 0 6 0H34C37.3137 0 40 2.68629 40 6V34C40 37.3137 37.3137 40 34 40H6C2.68629 40 0 37.3137 0 34V6Z" fill="#232323"/>
<path d="M17.7954 27.5003C18.3831 28.019 19.1549 28.3337 20.0003 28.3337C20.8457 28.3337 21.6175 28.019 22.2052 27.5003M25.0003 16.667C25.0003 15.3409 24.4735 14.0691 23.5358 13.1315C22.5982 12.1938 21.3264 11.667 20.0003 11.667C18.6742 11.667 17.4024 12.1938 16.4648 13.1315C15.5271 14.0691 15.0003 15.3409 15.0003 16.667C15.0003 19.2421 14.3507 21.0053 13.625 22.1715C13.0129 23.1552 12.7068 23.6471 12.7181 23.7843C12.7305 23.9362 12.7627 23.9942 12.8851 24.085C12.9957 24.167 13.4941 24.167 14.491 24.167H25.5096C26.5065 24.167 27.0049 24.167 27.1155 24.085C27.2379 23.9942 27.2701 23.9362 27.2825 23.7843C27.2938 23.6471 26.9877 23.1552 26.3756 22.1715C25.6499 21.0053 25.0003 19.2421 25.0003 16.667Z" stroke="#D4D4D4" stroke-width="1.66667" stroke-linecap="round" stroke-linejoin="round"/>
</svg>
