<svg width="24" height="25" viewBox="0 0 24 25" fill="none" xmlns="http://www.w3.org/2000/svg">
<path d="M12 2.13477C13.3132 2.13477 14.6136 2.39342 15.8268 2.89597C17.0401 3.39852 18.1425 4.13511 19.0711 5.0637C19.9997 5.99229 20.7363 7.09468 21.2388 8.30794C21.7413 9.52119 22 10.8216 22 12.1348M12 2.13477V12.1348M12 2.13477C6.47715 2.13477 2 6.61192 2 12.1348C2 17.6576 6.47715 22.1348 12 22.1348C17.5228 22.1348 22 17.6576 22 12.1348M12 2.13477C17.5228 2.13477 22 6.61192 22 12.1348M22 12.1348L12 12.1348M22 12.1348C22 13.7129 21.6265 15.2686 20.9101 16.6747C20.1936 18.0808 19.1546 19.2973 17.8779 20.2249L12 12.1348" stroke="#A3A3A3" stroke-width="1.5" stroke-linecap="round" stroke-linejoin="round"/>
</svg>
