<svg width="24" height="25" viewBox="0 0 24 25" fill="none" xmlns="http://www.w3.org/2000/svg">
<path d="M12 2.86523C13.3132 2.86523 14.6136 3.12389 15.8268 3.62644C17.0401 4.12899 18.1425 4.86558 19.0711 5.79417C19.9997 6.72276 20.7363 7.82515 21.2388 9.0384C21.7413 10.2517 22 11.552 22 12.8652M12 2.86523V12.8652M12 2.86523C6.47715 2.86523 2 7.34239 2 12.8652C2 18.3881 6.47715 22.8652 12 22.8652C17.5228 22.8652 22 18.3881 22 12.8652M12 2.86523C17.5228 2.86523 22 7.34239 22 12.8652M22 12.8652L12 12.8652M22 12.8652C22 14.4433 21.6265 15.999 20.9101 17.4051C20.1936 18.8112 19.1546 20.0278 17.8779 20.9554L12 12.8652" stroke="#EF884A" stroke-width="1.5" stroke-linecap="round" stroke-linejoin="round"/>
</svg>
