<svg width="24" height="25" viewBox="0 0 24 25" fill="none" xmlns="http://www.w3.org/2000/svg">
<path fill-rule="evenodd" clip-rule="evenodd" d="M19.062 12.6401C19.734 11.9681 20.824 11.9671 21.496 12.6401V12.6401C22.168 13.3121 22.168 14.4021 21.495 15.0741L15.721 20.8431C15.534 21.0301 15.28 21.1351 15.015 21.1351H13V19.1201C13 18.8551 13.105 18.6011 13.293 18.4131L19.062 12.6401V12.6401Z" stroke="#A3A3A3" stroke-width="1.5" stroke-linecap="round" stroke-linejoin="round"/>
<path d="M7 9.13477H15" stroke="#A3A3A3" stroke-width="1.5" stroke-linecap="round" stroke-linejoin="round"/>
<path d="M7 13.1348H12" stroke="#A3A3A3" stroke-width="1.5" stroke-linecap="round" stroke-linejoin="round"/>
<path d="M7 17.1348H10" stroke="#A3A3A3" stroke-width="1.5" stroke-linecap="round" stroke-linejoin="round"/>
<path d="M20.2203 16.355L17.7803 13.915" stroke="#A3A3A3" stroke-width="1.5" stroke-linecap="round" stroke-linejoin="round"/>
<path d="M19 9.13477V6.13477C19 5.02977 18.105 4.13477 17 4.13477H5C3.895 4.13477 3 5.02977 3 6.13477V19.1348C3 20.2398 3.895 21.1348 5 21.1348H9" stroke="#A3A3A3" stroke-width="1.5" stroke-linecap="round" stroke-linejoin="round"/>
<path d="M15 3.13477V5.13477" stroke="#A3A3A3" stroke-width="1.5" stroke-linecap="round" stroke-linejoin="round"/>
<path d="M11 3.13477V5.13477" stroke="#A3A3A3" stroke-width="1.5" stroke-linecap="round" stroke-linejoin="round"/>
<path d="M7 3.13477V5.13477" stroke="#A3A3A3" stroke-width="1.5" stroke-linecap="round" stroke-linejoin="round"/>
</svg>
