<svg width="24" height="25" viewBox="0 0 24 25" fill="none" xmlns="http://www.w3.org/2000/svg">
<path fill-rule="evenodd" clip-rule="evenodd" d="M19.062 13.3706C19.734 12.6986 20.824 12.6976 21.496 13.3706V13.3706C22.168 14.0426 22.168 15.1326 21.495 15.8046L15.721 21.5736C15.534 21.7606 15.28 21.8656 15.015 21.8656H13V19.8506C13 19.5856 13.105 19.3316 13.293 19.1436L19.062 13.3706V13.3706Z" stroke="#EF884A" stroke-width="1.5" stroke-linecap="round" stroke-linejoin="round"/>
<path d="M7 9.86523H15" stroke="#EF884A" stroke-width="1.5" stroke-linecap="round" stroke-linejoin="round"/>
<path d="M7 13.8652H12" stroke="#EF884A" stroke-width="1.5" stroke-linecap="round" stroke-linejoin="round"/>
<path d="M7 17.8652H10" stroke="#EF884A" stroke-width="1.5" stroke-linecap="round" stroke-linejoin="round"/>
<path d="M20.2203 17.0855L17.7803 14.6455" stroke="#EF884A" stroke-width="1.5" stroke-linecap="round" stroke-linejoin="round"/>
<path d="M19 9.86523V6.86523C19 5.76023 18.105 4.86523 17 4.86523H5C3.895 4.86523 3 5.76023 3 6.86523V19.8652C3 20.9702 3.895 21.8652 5 21.8652H9" stroke="#EF884A" stroke-width="1.5" stroke-linecap="round" stroke-linejoin="round"/>
<path d="M15 3.86523V5.86523" stroke="#EF884A" stroke-width="1.5" stroke-linecap="round" stroke-linejoin="round"/>
<path d="M11 3.86523V5.86523" stroke="#EF884A" stroke-width="1.5" stroke-linecap="round" stroke-linejoin="round"/>
<path d="M7 3.86523V5.86523" stroke="#EF884A" stroke-width="1.5" stroke-linecap="round" stroke-linejoin="round"/>
</svg>
