<svg width="24" height="24" viewBox="0 0 24 24" fill="none" xmlns="http://www.w3.org/2000/svg">
<path fill-rule="evenodd" clip-rule="evenodd" d="M12 7C12 4.79086 13.7909 3 16 3H20C21.1046 3 22 3.89543 22 5V19C22 20.1046 21.1046 21 20 21H4C2.89543 21 2 20.1046 2 19V5C2 3.89543 2.89543 3 4 3H8C10.2091 3 12 4.79086 12 7Z" fill="#EF884A" stroke="#FFF7ED" stroke-width="1.5" stroke-linecap="round" stroke-linejoin="round"/>
<path d="M22 17H15C13.3431 17 12 18.3431 12 20V20C12 18.3431 10.6569 17 9 17H2" stroke="#FFF7ED" stroke-width="1.5" stroke-linecap="round" stroke-linejoin="round"/>
<path d="M12 7V20" stroke="#FFF7ED" stroke-width="1.5" stroke-linecap="round" stroke-linejoin="round"/>
</svg>
