<svg width="1392" height="912" viewBox="0 0 1392 912" fill="none" xmlns="http://www.w3.org/2000/svg">
<g clip-path="url(#clip0_855_2057)">
<mask id="mask0_855_2057" style="mask-type:alpha" maskUnits="userSpaceOnUse" x="-548" y="-577" width="3032" height="2329">
<g clip-path="url(#clip1_855_2057)">
<path d="M738.339 261.812C738.339 470.113 444.579 656.147 274.689 656.147C104.798 656.147 -956.66 -74.4443 -956.66 -282.745C-956.66 -491.046 568.449 -204.281 738.339 -204.281C908.23 -204.281 738.339 53.5115 738.339 261.812Z" fill="url(#paint0_linear_855_2057)"/>
<path d="M1180.31 1277.35C1180.31 1485.65 1042.59 1654.51 872.698 1654.51C702.807 1654.51 -243.63 1605.96 -243.63 1397.66C-243.63 1189.36 -240.509 642.899 -70.6178 642.899C378.146 882.423 741.728 531.427 1038.9 664.924C1291.21 778.269 1128.02 1123.82 1180.31 1277.35Z" fill="url(#paint1_radial_855_2057)"/>
<path d="M1529.27 385.326C1987.66 799.338 1775.91 591.28 2169.63 580.798C2231.4 592.696 2336.25 593.262 2261.54 500.34C2168.16 384.188 2198.26 302.15 2081.56 175.602C1964.86 49.0537 1893.79 -79.5167 1717.6 -280.788C1541.42 -482.059 1527.86 -316.145 1329.24 -331.873C1130.61 -347.601 1221.2 -322.625 947.15 -30.5887C673.097 261.447 1070.87 -28.6851 1529.27 385.326Z" fill="#D9D9D9"/>
<path d="M1096.5 1036.54C483.056 1108.76 779.079 1086.47 527.637 1389.63C478.003 1428.27 408.515 1506.79 527.637 1511.78C676.541 1518.03 718.448 1594.71 890.533 1590.25C1062.62 1585.79 1206.17 1617 1473.66 1617C1741.15 1617 1625.24 1497.52 1767.9 1358.42C1910.56 1219.33 1832.1 1271.04 1792.87 872.481C1753.64 473.92 1709.95 964.32 1096.5 1036.54Z" fill="#D9D9D9"/>
</g>
</mask>
<g mask="url(#mask0_855_2057)">
<line x1="-187.932" y1="428.952" x2="1323.64" y2="428.952" stroke="#FFEDD5" stroke-width="1.2607"/>
<line x1="-187.932" y1="751.69" x2="1323.64" y2="751.69" stroke="#FFEDD5" stroke-width="1.2607"/>
<line x1="-187.932" y1="106.213" x2="1323.64" y2="106.213" stroke="#FFEDD5" stroke-width="1.2607"/>
<line x1="-187.932" y1="267.582" x2="1323.64" y2="267.582" stroke="#FFEDD5" stroke-width="1.2607"/>
<line x1="-187.932" y1="590.32" x2="1323.64" y2="590.32" stroke="#FFEDD5" stroke-width="1.2607"/>
<line x1="-187.932" y1="348.266" x2="1323.64" y2="348.266" stroke="#FFEDD5" stroke-width="1.2607"/>
<line x1="-187.932" y1="671.004" x2="1323.64" y2="671.004" stroke="#FFEDD5" stroke-width="1.2607"/>
<line x1="-187.932" y1="25.5279" x2="1323.64" y2="25.5279" stroke="#FFEDD5" stroke-width="1.2607"/>
<line x1="-187.932" y1="832.375" x2="1323.64" y2="832.375" stroke="#FFEDD5" stroke-width="1.2607"/>
<line x1="-187.932" y1="186.896" x2="1323.64" y2="186.896" stroke="#FFEDD5" stroke-width="1.2607"/>
<line x1="-187.932" y1="509.636" x2="1323.64" y2="509.636" stroke="#FFEDD5" stroke-width="1.2607"/>
<line x1="504.824" y1="-244.892" x2="504.824" y2="922.514" stroke="#FFEDD5" stroke-width="1.2607"/>
<line x1="182.083" y1="-244.892" x2="182.083" y2="922.514" stroke="#FFEDD5" stroke-width="1.2607"/>
<line x1="827.56" y1="-244.892" x2="827.56" y2="922.514" stroke="#FFEDD5" stroke-width="1.2607"/>
<line x1="1150.3" y1="-244.892" x2="1150.3" y2="922.514" stroke="#FFEDD5" stroke-width="1.2607"/>
<line x1="20.7131" y1="-244.892" x2="20.7131" y2="922.514" stroke="#FFEDD5" stroke-width="1.2607"/>
<line x1="666.189" y1="-244.892" x2="666.189" y2="922.514" stroke="#FFEDD5" stroke-width="1.2607"/>
<line x1="343.453" y1="-244.892" x2="343.453" y2="922.514" stroke="#FFEDD5" stroke-width="1.2607"/>
<line x1="988.93" y1="-244.892" x2="988.93" y2="922.514" stroke="#FFEDD5" stroke-width="1.2607"/>
<line x1="1311.67" y1="-244.892" x2="1311.67" y2="922.514" stroke="#FFEDD5" stroke-width="1.2607"/>
<line x1="585.507" y1="-244.892" x2="585.507" y2="922.514" stroke="#FFEDD5" stroke-width="1.2607"/>
<line x1="262.766" y1="-244.892" x2="262.766" y2="922.514" stroke="#FFEDD5" stroke-width="1.2607"/>
<line x1="908.247" y1="-244.892" x2="908.247" y2="922.514" stroke="#FFEDD5" stroke-width="1.2607"/>
<line x1="1230.98" y1="-244.892" x2="1230.98" y2="922.514" stroke="#FFEDD5" stroke-width="1.2607"/>
<line x1="101.4" y1="-244.892" x2="101.4" y2="922.514" stroke="#FFEDD5" stroke-width="1.2607"/>
<line x1="746.877" y1="-244.892" x2="746.877" y2="922.514" stroke="#FFEDD5" stroke-width="1.2607"/>
<line x1="424.136" y1="-244.892" x2="424.136" y2="922.514" stroke="#FFEDD5" stroke-width="1.2607"/>
<line x1="1069.61" y1="-244.892" x2="1069.61" y2="922.514" stroke="#FFEDD5" stroke-width="1.2607"/>
<line x1="1392.35" y1="-244.892" x2="1392.35" y2="922.514" stroke="#FFEDD5" stroke-width="1.2607"/>
</g>
</g>
<defs>
<linearGradient id="paint0_linear_855_2057" x1="-221.952" y1="-178.424" x2="420.917" y2="163.965" gradientUnits="userSpaceOnUse">
<stop stop-color="white"/>
<stop offset="1" stop-color="white" stop-opacity="0"/>
</linearGradient>
<radialGradient id="paint1_radial_855_2057" cx="0" cy="0" r="1" gradientUnits="userSpaceOnUse" gradientTransform="translate(207.537 1286.2) rotate(-29.3932) scale(1099.1 1889.04)">
<stop stop-color="white"/>
<stop offset="1" stop-color="white" stop-opacity="0"/>
</radialGradient>
<clipPath id="clip0_855_2057">
<rect width="1969" height="1430.07" fill="white" transform="translate(-17)"/>
</clipPath>
<clipPath id="clip1_855_2057">
<rect width="3031.3" height="2328.29" fill="white" transform="translate(-548 -577)"/>
</clipPath>
</defs>
</svg>
