<svg width="26" height="28" viewBox="0 0 26 28" fill="none" xmlns="http://www.w3.org/2000/svg">
<path fill-rule="evenodd" clip-rule="evenodd" d="M23.0889 5.67187L19.9118 2.4948C19.1148 1.69777 18.0338 1.25 16.9066 1.25H5.91699C3.56978 1.25 1.66699 3.15279 1.66699 5.5V22.5C1.66699 24.8472 3.56978 26.75 5.91699 26.75H20.0837C22.4309 26.75 24.3337 24.8472 24.3337 22.5V8.67707C24.3337 7.5499 23.8859 6.4689 23.0889 5.67187Z" fill="#EF884A" stroke="#EF884A" stroke-width="1.5" stroke-linecap="round" stroke-linejoin="round"/>
<path d="M24.3337 9.04167H19.3753C17.8105 9.04167 16.542 7.77314 16.542 6.20833V1.25" stroke="white" stroke-width="1.5" stroke-linecap="round" stroke-linejoin="round"/>
<path d="M14.417 15.4163H18.667" stroke="#EF884A" stroke-width="1.5" stroke-linecap="round" stroke-linejoin="round"/>
<path d="M14.417 15.4163H18.667" stroke="white" stroke-width="1.5" stroke-linecap="round" stroke-linejoin="round"/>
<path d="M7.21582 14.708L8.63249 16.1247" stroke="white" stroke-width="1.5" stroke-linecap="round" stroke-linejoin="round"/>
<path d="M10.7568 14L8.63184 16.125" stroke="white" stroke-width="1.5" stroke-linecap="round" stroke-linejoin="round"/>
<path d="M14.417 21.0833H18.667" stroke="#EF884A" stroke-width="1.5" stroke-linecap="round" stroke-linejoin="round"/>
<path d="M7.27441 21.0833H18.6668" stroke="white" stroke-width="1.5" stroke-linecap="round" stroke-linejoin="round"/>
</svg>
