<svg width="40" height="40" viewBox="0 0 40 40" fill="none" xmlns="http://www.w3.org/2000/svg">
<path d="M4 4C4 1.79086 5.79086 0 8 0H24L36 12V36C36 38.2091 34.2091 40 32 40H8C5.79086 40 4 38.2091 4 36V4Z" fill="#EF884A"/>
<path opacity="0.3" d="M24 0L36 12H28C25.7909 12 24 10.2091 24 8V0Z" fill="white"/>
<path d="M12.7602 27.0909L13.6615 28.8072L14.5851 27.0909H15.9818L14.5596 29.5455L16.0202 32H14.6299L13.6615 30.3029L12.7091 32H11.3028L12.7602 29.5455L11.354 27.0909H12.7602ZM18.1519 25.4545V32H16.7904V25.4545H18.1519ZM23.3271 28.4908L22.0806 28.5675C22.0593 28.4609 22.0135 28.3651 21.9432 28.2798C21.8729 28.1925 21.7802 28.1232 21.6651 28.0721C21.5522 28.0188 21.4169 27.9922 21.2592 27.9922C21.0483 27.9922 20.8704 28.0369 20.7255 28.1264C20.5806 28.2138 20.5082 28.331 20.5082 28.478C20.5082 28.5952 20.555 28.6942 20.6488 28.7752C20.7425 28.8562 20.9034 28.9212 21.1314 28.9702L22.0199 29.1491C22.4972 29.2472 22.853 29.4048 23.0874 29.6222C23.3217 29.8395 23.4389 30.125 23.4389 30.4787C23.4389 30.8004 23.3441 31.0827 23.1545 31.3256C22.967 31.5685 22.7092 31.7582 22.381 31.8945C22.055 32.0288 21.679 32.0959 21.2528 32.0959C20.603 32.0959 20.0852 31.9606 19.6996 31.69C19.3161 31.4173 19.0913 31.0465 19.0252 30.5778L20.3643 30.5075C20.4048 30.7056 20.5028 30.8569 20.6584 30.9613C20.8139 31.0636 21.0131 31.1147 21.256 31.1147C21.4947 31.1147 21.6864 31.0689 21.8313 30.9773C21.9783 30.8835 22.0529 30.7631 22.055 30.6161C22.0529 30.4925 22.0007 30.3913 21.8984 30.3125C21.7962 30.2315 21.6385 30.1697 21.4254 30.1271L20.5753 29.9577C20.0959 29.8619 19.739 29.6957 19.5046 29.4592C19.2724 29.2227 19.1562 28.9212 19.1562 28.5547C19.1562 28.2393 19.2415 27.9677 19.4119 27.7397C19.5845 27.5117 19.8263 27.3359 20.1374 27.2124C20.4506 27.0888 20.8171 27.027 21.2369 27.027C21.8569 27.027 22.3448 27.158 22.7006 27.4201C23.0586 27.6822 23.2674 28.0391 23.3271 28.4908ZM25.434 27.0909L26.3353 28.8072L27.259 27.0909H28.6556L27.2334 29.5455L28.694 32H27.3037L26.3353 30.3029L25.3829 32H23.9767L25.434 29.5455L24.0278 27.0909H25.434Z" fill="white"/>
</svg>
